<svg width="554" height="69" viewBox="0 0 554 69" fill="none" xmlns="http://www.w3.org/2000/svg">
<mask id="mask0_2255_4782" style="mask-type:luminance" maskUnits="userSpaceOnUse" x="0" y="2" width="250" height="65">
<path d="M249.925 2H0V66.4138H249.925V2Z" fill="white"/>
</mask>
<g mask="url(#mask0_2255_4782)">
<path fill-rule="evenodd" clip-rule="evenodd" d="M27.2847 57.4649C27.4461 58.2464 27.5268 58.6329 27.2847 58.9089C27.0426 59.185 26.6349 59.1468 25.8194 59.0746C21.2663 58.6668 18.718 57.8344 16.726 57.0104C13.4132 55.6386 10.7799 53.0053 9.408 49.6924C8.58404 47.7004 7.74733 45.1521 7.34384 40.599C7.27164 39.7878 7.23341 39.3801 7.50948 39.1337C7.78131 38.8916 8.17205 38.9723 8.95355 39.1337C18.1446 41.0365 25.3819 48.2738 27.2847 57.4649ZM36.085 59.2402C35.4522 59.27 35.1379 59.2827 34.917 59.1043C34.7004 58.9259 34.6537 58.5946 34.5602 57.9363C32.6532 44.4385 21.9756 33.761 8.47786 31.8539C7.81953 31.7605 7.49249 31.7138 7.30986 31.4972C7.13148 31.2806 7.14422 30.962 7.17395 30.3292C7.29712 27.6789 7.54771 25.5977 7.8705 23.9031C7.97668 23.3467 8.02765 23.0664 8.2485 22.8965C8.46936 22.7266 8.75393 22.7478 9.32731 22.7903C27.633 24.1664 42.2478 38.7812 43.6239 57.0826C43.6663 57.656 43.6876 57.9406 43.5177 58.1614C43.3478 58.3823 43.0675 58.4332 42.5111 58.5394C40.8122 58.8622 38.731 59.1128 36.085 59.236V59.2402ZM52.4964 53.6381C51.7786 54.4238 51.4176 54.8188 50.9801 54.6872C50.5426 54.5555 50.4492 53.9736 50.2623 52.8099C47.234 34.0243 32.3984 19.1886 13.6128 16.1603C12.449 15.9735 11.8672 15.88 11.7355 15.4383C11.6038 15.0008 11.9988 14.6398 12.7846 13.9178C13.9356 12.8687 15.265 12.015 16.7303 11.4077C19.5037 10.2567 23.356 9.08866 32.2115 9.08866C41.067 9.08866 44.9193 10.2567 47.6927 11.4077C51.0056 12.7795 53.6389 15.4128 55.0107 18.7257C56.1618 21.4991 57.3297 25.3514 57.3297 34.2069C57.3297 43.0624 56.1618 46.9147 55.0107 49.6881C54.4034 51.1535 53.5497 52.4871 52.5006 53.6381H52.4964ZM0.000341002 34.2069C0.000341002 24.6039 1.28726 19.8002 2.85874 16.0117C4.95264 10.9617 8.96204 6.94805 14.0163 4.85415C17.8006 3.28692 22.6042 2 32.2073 2C41.8103 2 46.6139 3.28692 50.4025 4.8584C55.4525 6.9523 59.4661 10.9617 61.56 16.0159C63.1272 19.8045 64.4184 24.6081 64.4184 34.2112C64.4184 43.8142 63.1315 48.6178 61.56 52.4064C59.4661 57.4564 55.4567 61.47 50.4025 63.5597C46.6139 65.1312 41.8103 66.4181 32.2073 66.4181C22.6042 66.4181 17.8006 65.1312 14.012 63.5597C8.96204 61.47 4.94839 57.4564 2.85449 52.4064C1.28726 48.6178 -0.00390625 43.8142 -0.00390625 34.2112L0.000341002 34.2069Z" fill="#2A2A2A"/>
</g>
<path d="M311.264 43.6396C315.835 43.6398 319.04 46.3041 319.04 52.6035C319.04 59.6953 315.835 62.3953 310.903 62.3955C308.024 62.3954 306.044 60.9556 305.144 59.2637V68.9482H300.932V44H304.892V47.7441C305.54 45.7282 307.448 43.6396 311.264 43.6396ZM265 67H262V2H265V67ZM358.213 58.1836H360.949V66.6797H357.133V62H344.497V66.6797H340.682V58.1836H342.77C343.777 55.5916 344.389 52.0273 344.389 46.0518V44H358.213V58.1836ZM394.322 43.6035C399.902 43.6397 403.538 46.8086 403.538 53.0723C403.538 59.2996 399.758 62.3592 394.179 62.3955C388.563 62.3955 384.927 59.2277 384.927 52.9277C384.927 46.6999 388.706 43.6035 394.322 43.6035ZM330.825 43.6035C336.045 43.6398 339.177 46.8444 339.177 52.4961V54.2236H325.821C326.145 57.2116 327.981 58.7236 331.257 58.7236C334.569 58.7235 336.765 57.4638 337.737 55.8799V60.2002C336.873 61.2081 334.389 62.3952 331.113 62.3594C325.173 62.3954 321.646 59.1197 321.646 52.9277C321.646 46.9519 325.389 43.6035 330.825 43.6035ZM442.06 43.6035C447.279 43.6398 450.411 46.8444 450.411 52.4961V54.2236H437.056C437.38 57.2116 439.215 58.7236 442.491 58.7236C445.803 58.7235 448 57.4638 448.972 55.8799V60.2002C448.108 61.2081 445.623 62.3952 442.348 62.3594C436.408 62.3954 432.88 59.1197 432.88 52.9277C432.88 46.9519 436.624 43.6035 442.06 43.6035ZM505.868 43.6035C511.088 43.6398 514.22 46.8444 514.22 52.4961V54.2236H500.864C501.188 57.2116 503.024 58.7236 506.3 58.7236C509.612 58.7235 511.808 57.4638 512.78 55.8799V60.2002C511.916 61.2081 509.432 62.3952 506.156 62.3594C500.216 62.3954 496.688 59.1197 496.688 52.9277C496.689 46.9519 500.432 43.6035 505.868 43.6035ZM381.002 62H376.826V47.708H370.994L370.886 49.9756C370.418 61.2067 367.682 62.2157 364.874 62.2158C364.191 62.2158 363.471 62.144 363.11 62.0361V57.6797C363.434 57.7875 363.758 57.8242 364.046 57.8242C365.594 57.8241 366.853 57.3188 367.105 47.9238L367.25 44H381.002V62ZM295.829 62H291.616V47.708H283.769V62H279.557V44H295.829V62ZM413.626 51.0195H416.11V44H420.286V51.0195H422.698L426.515 44H430.979L426.227 52.5322L431.555 62H426.767L422.771 54.5479H420.286V62H416.11V54.5479H413.662L409.559 62H404.843L410.17 52.6758L405.347 44H410.026L413.626 51.0195ZM458.495 51.0195H466.631V44H470.843V62H466.631V54.7275H458.495V62H454.283V44H458.495V51.0195ZM480.151 56.2041L488.791 44H492.787V62H488.611V49.6514L479.971 62H475.976V44H480.151V56.2041ZM394.179 47.2754C390.975 47.3114 389.21 49.1479 389.21 52.9277V53.0361C389.21 56.9958 391.082 58.7235 394.25 58.7236C397.454 58.7234 399.254 56.8878 399.254 53.0723V52.9639C399.254 49.0044 397.346 47.2757 394.179 47.2754ZM310.04 47.3838C306.728 47.3838 305.216 49.2203 305.144 52.2441V53.6123C305.144 56.852 307.016 58.6875 309.968 58.6875C313.351 58.6873 314.828 57.0317 314.828 52.7842C314.828 48.8247 312.92 47.3841 310.04 47.3838ZM348.313 48.1396C348.205 52.2794 347.845 55.3757 346.837 58.1836H354.001V47.708H348.313V48.1396ZM330.717 47.2754C328.017 47.2755 326.325 48.6438 325.893 51.2354H334.965C334.857 48.7879 333.272 47.2756 330.717 47.2754ZM441.951 47.2754C439.252 47.2755 437.559 48.6438 437.127 51.2354H446.199C446.091 48.7879 444.507 47.2756 441.951 47.2754ZM505.76 47.2754C503.06 47.2755 501.368 48.6438 500.936 51.2354H510.008C509.9 48.7879 508.315 47.2756 505.76 47.2754ZM408.154 9.63965C412.726 9.63985 415.93 12.3041 415.931 18.6035C415.931 25.6953 412.726 28.3953 407.794 28.3955C404.914 28.3954 402.934 26.9556 402.034 25.2637V34.9482H397.822V10H401.782V13.7441C402.43 11.7282 404.338 9.63965 408.154 9.63965ZM313.99 9.60352C319.57 9.6397 323.206 12.8086 323.206 19.0723C323.206 25.2996 319.426 28.3592 313.847 28.3955C308.231 28.3955 304.595 25.2277 304.595 18.9277C304.595 12.6999 308.374 9.60352 313.99 9.60352ZM468.542 9.60352C470.954 9.6396 473.114 10.3599 474.302 11.2598V16.5156C473.078 14.6079 471.17 13.3115 468.542 13.2754C465.086 13.2755 463.214 15.1122 463.214 18.748V19.2881C463.214 22.9959 465.23 24.7236 468.614 24.7236C471.602 24.7235 473.582 23.4638 474.482 21.8799V26.2002C473.69 27.2081 471.422 28.3954 468.506 28.3955C462.746 28.3954 458.931 25.2276 458.931 18.9277C458.931 12.736 462.818 9.63958 468.542 9.60352ZM506.717 9.60352C512.296 9.6397 515.933 12.8086 515.933 19.0723C515.932 25.2996 512.153 28.3592 506.573 28.3955C500.957 28.3955 497.321 25.2277 497.321 18.9277C497.321 12.6999 501.101 9.60352 506.717 9.60352ZM385.599 9.60352C390.818 9.63978 393.95 12.8444 393.95 18.4961V20.2236H380.595C380.919 23.2116 382.754 24.7236 386.03 24.7236C389.342 24.7235 391.539 23.4638 392.511 21.8799V26.2002C391.647 27.2081 389.162 28.3952 385.887 28.3594C379.947 28.3954 376.419 25.1197 376.419 18.9277C376.419 12.9519 380.163 9.60352 385.599 9.60352ZM447.931 9.60352C453.15 9.63978 456.282 12.8444 456.282 18.4961V20.2236H442.927C443.251 23.2116 445.086 24.7236 448.362 24.7236C451.674 24.7235 453.871 23.4638 454.843 21.8799V26.2002C453.979 27.2081 451.494 28.3952 448.219 28.3594C442.279 28.3954 438.751 25.1197 438.751 18.9277C438.751 12.9519 442.495 9.60352 447.931 9.60352ZM527.771 9.60352C532.99 9.63978 536.122 12.8444 536.122 18.4961V20.2236H522.767C523.091 23.2116 524.926 24.7236 528.202 24.7236C531.514 24.7235 533.711 23.4638 534.683 21.8799V26.2002C533.819 27.2081 531.334 28.3952 528.059 28.3594C522.119 28.3954 518.591 25.1197 518.591 18.9277C518.591 12.9519 522.335 9.60352 527.771 9.60352ZM284.776 13.3838H288.557L296.656 2.7998H302.128L292.517 14.7881L303.677 28H297.916L288.772 17.0918H284.776V28H280.276V2.7998H284.776V13.3838ZM337.312 18.4238L343 10H347.248V28H343.036V15.9043L337.852 23.5361H336.52L331.3 15.8682V28H327.088V10H331.444L337.312 18.4238ZM362.589 18.4238L368.277 10H372.525V28H368.313V15.9043L363.129 23.5361H361.797L356.577 15.8682V28H352.365V10H356.722L362.589 18.4238ZM423.324 15.7959C423.324 17.9558 424.548 18.9639 426.78 18.9639C428.22 18.9637 429.588 18.6756 430.668 18.1357V10H434.88V28H430.668V21.6641C429.408 22.384 427.679 22.7079 426.023 22.708C421.704 22.7079 419.112 20.7632 419.112 16.4434V10H423.324V15.7959ZM482.542 17.0195H485.458L490.498 10H495.178L488.878 18.4961L496.187 28H491.074L485.422 20.5479H482.542V28H478.33V10H482.542V17.0195ZM313.847 13.2754C310.643 13.3114 308.878 15.1479 308.878 18.9277V19.0361C308.878 22.9958 310.75 24.7235 313.918 24.7236C317.122 24.7234 318.922 22.8878 318.922 19.0723V18.9639C318.922 15.0044 317.014 13.2757 313.847 13.2754ZM506.573 13.2754C503.369 13.3114 501.605 15.1479 501.604 18.9277V19.0361C501.605 22.9958 503.477 24.7235 506.645 24.7236C509.848 24.7234 511.648 22.8878 511.648 19.0723V18.9639C511.648 15.0044 509.741 13.2757 506.573 13.2754ZM406.931 13.3838C403.619 13.3838 402.106 15.2203 402.034 18.2441V19.6123C402.034 22.852 403.907 24.6875 406.858 24.6875C410.242 24.6873 411.719 23.0317 411.719 18.7842C411.719 14.8247 409.81 13.3841 406.931 13.3838ZM385.49 13.2754C382.791 13.2755 381.098 14.6438 380.666 17.2354H389.738C389.63 14.7879 388.046 13.2756 385.49 13.2754ZM447.822 13.2754C445.123 13.2755 443.43 14.6438 442.998 17.2354H452.07C451.962 14.7879 450.378 13.2756 447.822 13.2754ZM527.662 13.2754C524.962 13.2755 523.27 14.6438 522.838 17.2354H531.91C531.802 14.7879 530.218 13.2756 527.662 13.2754Z" fill="#2A2A2A"/>
<path d="M216.661 66H191.068V3.57711H218.177C232.089 3.57711 239.223 8.7493 239.223 19.0937C239.223 26.2277 236.369 30.954 229.948 33.4509C237.618 34.7886 241.095 39.6932 241.095 47.8082C241.095 60.7386 231.821 66 216.661 66ZM202.215 55.7448H217.375C225.936 55.7448 229.859 52.9804 229.859 47.0056C229.859 41.0308 225.4 38.7123 217.553 38.7123H202.215V55.7448ZM202.215 29.9731H216.572C223.617 29.9731 228.076 26.8519 228.076 21.5014C228.076 16.5076 224.776 13.8323 216.84 13.8323H202.215V29.9731Z" fill="#2A2A2A"/>
<path d="M177.786 66H135.25V58.3309C161.11 36.3045 165.123 29.7056 165.123 23.2849C165.123 17.1318 161.021 13.654 154.333 13.654C147.199 13.5648 141.313 16.1509 137.211 20.8772V9.01682C140.243 5.98486 147.11 2.68536 155.938 2.77453C169.047 2.86371 176.092 9.99776 176.092 20.9664C176.092 31.2215 170.652 39.3365 154.868 52.6237L151.212 55.7448H177.786V66Z" fill="#2A2A2A"/>
<path d="M101.708 66H76.1147V3.57711H103.224C117.135 3.57711 124.27 8.7493 124.27 19.0937C124.27 26.2277 121.416 30.954 114.995 33.4509C122.664 34.7886 126.142 39.6932 126.142 47.8082C126.142 60.7386 116.868 66 101.708 66ZM87.2617 55.7448H102.422C110.982 55.7448 114.906 52.9804 114.906 47.0056C114.906 41.0308 110.447 38.7123 102.6 38.7123H87.2617V55.7448ZM87.2617 29.9731H101.619C108.664 29.9731 113.123 26.8519 113.123 21.5014C113.123 16.5076 109.823 13.8323 101.886 13.8323H87.2617V29.9731Z" fill="#2A2A2A"/>
</svg>
