<?xml version="1.0" encoding="utf-8"?>
<!-- Generator: Adobe Illustrator 26.0.0, SVG Export Plug-In . SVG Version: 6.00 Build 0)  -->
<svg version="1.1" id="Слой_1" xmlns="http://www.w3.org/2000/svg" xmlns:xlink="http://www.w3.org/1999/xlink" x="0px" y="0px"
	 viewBox="0 0 38 38" style="enable-background:new 0 0 38 38;" xml:space="preserve">
<style type="text/css">
	.st0{fill:#04C9B0;}
	.st1{fill:none;stroke:#FFFFFF;stroke-width:2;stroke-linecap:round;stroke-linejoin:round;}
</style>
<path class="st0" d="M16,0h6c8.8,0,16,7.2,16,16v6c0,8.8-7.2,16-16,16h-6C7.2,38,0,30.8,0,22v-6C0,7.2,7.2,0,16,0z"/>
<path class="st0" d="M11,17c0,0.9,0.2,1.8,0.5,2.7c0.4,0.8,0.9,1.6,1.5,2.3c0.7,0.7,1.4,1.2,2.3,1.5c0.8,0.4,1.8,0.5,2.7,0.5
	s1.8-0.2,2.7-0.5c0.8-0.4,1.6-0.9,2.3-1.5c0.7-0.6,1.2-1.4,1.5-2.3c0.4-0.8,0.5-1.8,0.5-2.7s-0.2-1.8-0.5-2.7
	c-0.4-0.8-0.9-1.6-1.5-2.3c-0.6-0.7-1.4-1.2-2.3-1.5C19.8,10.2,18.9,10,18,10s-1.8,0.2-2.7,0.5c-0.8,0.4-1.6,0.9-2.3,1.5
	c-0.7,0.7-1.2,1.4-1.5,2.3C11.2,15.2,11,16.1,11,17z M29,28l-6-6L29,28z"/>
<path class="st1" d="M29,28l-6-6 M11,17c0,0.9,0.2,1.8,0.5,2.7c0.4,0.8,0.9,1.6,1.5,2.3c0.7,0.7,1.4,1.2,2.3,1.5
	c0.8,0.4,1.8,0.5,2.7,0.5s1.8-0.2,2.7-0.5c0.8-0.4,1.6-0.9,2.3-1.5c0.7-0.6,1.2-1.4,1.5-2.3c0.4-0.8,0.5-1.8,0.5-2.7
	s-0.2-1.8-0.5-2.7c-0.4-0.8-0.9-1.6-1.5-2.3c-0.6-0.7-1.4-1.2-2.3-1.5C19.8,10.2,18.9,10,18,10s-1.8,0.2-2.7,0.5
	c-0.8,0.4-1.6,0.9-2.3,1.5c-0.7,0.7-1.2,1.4-1.5,2.3C11.2,15.2,11,16.1,11,17z"/>
</svg>
