<svg width="554" height="69" viewBox="0 0 554 69" fill="none" xmlns="http://www.w3.org/2000/svg">
<g clip-path="url(#clip0_668_2739)">
<path fill-rule="evenodd" clip-rule="evenodd" d="M27.2847 57.4649C27.4461 58.2464 27.5268 58.6329 27.2847 58.9089C27.0426 59.185 26.6349 59.1468 25.8194 59.0746C21.2663 58.6668 18.718 57.8344 16.726 57.0104C13.4132 55.6386 10.7799 53.0053 9.408 49.6924C8.58404 47.7004 7.74733 45.1521 7.34384 40.599C7.27164 39.7878 7.23341 39.3801 7.50948 39.1337C7.78131 38.8916 8.17205 38.9723 8.95355 39.1337C18.1446 41.0365 25.3819 48.2738 27.2847 57.4649ZM36.085 59.2402C35.4522 59.27 35.1379 59.2827 34.917 59.1043C34.7004 58.9259 34.6537 58.5946 34.5602 57.9363C32.6532 44.4385 21.9756 33.761 8.47786 31.8539C7.81953 31.7605 7.49249 31.7138 7.30986 31.4972C7.13148 31.2806 7.14422 30.962 7.17395 30.3292C7.29712 27.6789 7.54771 25.5977 7.8705 23.9031C7.97668 23.3467 8.02765 23.0664 8.2485 22.8965C8.46936 22.7266 8.75393 22.7478 9.32731 22.7903C27.633 24.1664 42.2478 38.7812 43.6239 57.0826C43.6663 57.656 43.6876 57.9406 43.5177 58.1614C43.3478 58.3823 43.0675 58.4332 42.5111 58.5394C40.8122 58.8622 38.731 59.1128 36.085 59.236V59.2402ZM52.4964 53.6381C51.7786 54.4238 51.4176 54.8188 50.9801 54.6872C50.5426 54.5555 50.4492 53.9736 50.2623 52.8099C47.234 34.0243 32.3984 19.1886 13.6128 16.1603C12.449 15.9735 11.8672 15.88 11.7355 15.4383C11.6038 15.0008 11.9988 14.6398 12.7846 13.9178C13.9356 12.8687 15.265 12.015 16.7303 11.4077C19.5037 10.2567 23.356 9.08866 32.2115 9.08866C41.067 9.08866 44.9193 10.2567 47.6927 11.4077C51.0056 12.7795 53.6389 15.4128 55.0107 18.7257C56.1618 21.4991 57.3297 25.3514 57.3297 34.2069C57.3297 43.0624 56.1618 46.9147 55.0107 49.6881C54.4034 51.1535 53.5497 52.4871 52.5006 53.6381H52.4964ZM0.000341002 34.2069C0.000341002 24.6039 1.28726 19.8002 2.85874 16.0117C4.95264 10.9617 8.96204 6.94805 14.0163 4.85415C17.8006 3.28692 22.6042 2 32.2073 2C41.8103 2 46.6139 3.28692 50.4025 4.8584C55.4525 6.9523 59.4661 10.9617 61.56 16.0159C63.1272 19.8045 64.4184 24.6081 64.4184 34.2112C64.4184 43.8142 63.1315 48.6178 61.56 52.4064C59.4661 57.4564 55.4567 61.47 50.4025 63.5597C46.6139 65.1312 41.8103 66.4181 32.2073 66.4181C22.6042 66.4181 17.8006 65.1312 14.012 63.5597C8.96204 61.47 4.94839 57.4564 2.85449 52.4064C1.28726 48.6178 -0.00390625 43.8142 -0.00390625 34.2112L0.000341002 34.2069Z" fill="#3D435C"/>
<path d="M245.392 56.0928C245.044 56.5217 244.548 56.9507 243.905 57.3796C243.288 57.7818 242.551 58.1571 241.693 58.5056C240.835 58.8273 239.87 59.0954 238.797 59.3098C237.752 59.5243 236.626 59.6316 235.42 59.6316C233.114 59.6316 231.023 59.2964 229.146 58.6262C227.27 57.956 225.661 57.0043 224.321 55.7711C223.007 54.5111 221.975 52.983 221.224 51.1868C220.501 49.3906 220.139 47.3532 220.139 45.0745C220.139 42.9566 220.501 41.0129 221.224 39.2436C221.948 37.4742 222.98 35.9461 224.321 34.6593C225.661 33.3725 227.27 32.3806 229.146 31.6835C231.05 30.9597 233.168 30.5978 235.5 30.5978C237.725 30.5978 239.629 30.8793 241.21 31.4422C242.792 31.9784 243.998 32.5414 244.829 33.1312V40.1283C244.401 39.5117 243.864 38.9085 243.221 38.3187C242.604 37.7289 241.894 37.2061 241.09 36.7504C240.312 36.2946 239.441 35.9327 238.476 35.6646C237.537 35.3697 236.546 35.2223 235.5 35.2223C233.972 35.2223 232.591 35.4635 231.358 35.9461C230.125 36.4287 229.079 37.0989 228.221 37.9568C227.364 38.8146 226.707 39.8602 226.251 41.0934C225.795 42.2998 225.567 43.6402 225.567 45.1147C225.567 46.4819 225.769 47.7687 226.171 48.9751C226.6 50.1547 227.216 51.1868 228.02 52.0715C228.851 52.9562 229.884 53.6666 231.117 54.2028C232.35 54.7122 233.771 54.9802 235.379 55.0071C236.613 55.0071 237.739 54.873 238.757 54.6049C239.803 54.3368 240.741 53.9749 241.572 53.5192C242.43 53.0634 243.181 52.5273 243.824 51.9107C244.468 51.2941 244.99 50.6238 245.392 49.9V56.0928Z" fill="#3D435C"/>
<path d="M214.481 47.0047H201.532V54.5647H216.411V59.1892H196.505V31.0401H215.968V35.6646H201.532V42.3802H214.481V47.0047Z" fill="#3D435C"/>
<path d="M184.144 47.0047H168.742V59.1892H163.715V31.0401H168.742V42.3802H184.144V31.0401H189.17V59.1892H184.144V47.0047Z" fill="#3D435C"/>
<path d="M136.677 33.1311C137.481 32.5413 138.674 31.9783 140.256 31.4421C141.837 30.906 143.754 30.6379 146.006 30.6379C147.588 30.6379 149.022 30.7853 150.309 31.0802C151.596 31.3483 152.695 31.7772 153.606 32.367C154.545 32.93 155.255 33.6539 155.738 34.5385C156.247 35.4232 156.502 36.4822 156.502 37.7154C156.502 40.9592 154.84 43.1709 151.515 44.3505C155.805 44.9939 157.949 47.1922 157.949 50.9454C157.949 52.1518 157.708 53.2912 157.226 54.3635C156.743 55.4091 156.019 56.3206 155.054 57.098C154.089 57.8487 152.883 58.4519 151.435 58.9076C150.014 59.3634 148.365 59.5912 146.489 59.5912C145.202 59.5912 143.996 59.484 142.87 59.2695C141.77 59.0819 140.765 58.8272 139.854 58.5055C138.969 58.157 138.191 57.7816 137.521 57.3795C136.878 56.9506 136.368 56.5216 135.993 56.0927V49.8999C136.422 50.6237 136.972 51.294 137.642 51.9105C138.312 52.5271 139.09 53.0633 139.974 53.5191C140.859 53.9748 141.851 54.3367 142.95 54.6048C144.076 54.8461 145.282 54.9667 146.569 54.9667C147.427 54.9667 148.231 54.8729 148.982 54.6852C149.733 54.4976 150.376 54.2295 150.912 53.881C151.475 53.5057 151.918 53.0499 152.239 52.5137C152.561 51.9776 152.722 51.3476 152.722 50.6237C152.722 49.3637 152.226 48.4388 151.234 47.849C150.269 47.2592 148.687 46.9643 146.489 46.9643H142.226V42.8224H146.449C147.36 42.8224 148.124 42.7286 148.741 42.5409C149.357 42.3265 149.853 42.045 150.229 41.6964C150.604 41.3479 150.872 40.9458 151.033 40.4901C151.22 40.0343 151.314 39.5384 151.314 39.0022C151.314 38.3588 151.18 37.8092 150.912 37.3534C150.644 36.8709 150.269 36.4822 149.786 36.1873C149.304 35.8924 148.741 35.6779 148.097 35.5439C147.454 35.383 146.757 35.2892 146.006 35.2624C144.934 35.2356 143.915 35.3562 142.95 35.6243C142.012 35.8924 141.14 36.2677 140.336 36.7503C139.559 37.206 138.848 37.7288 138.205 38.3186C137.588 38.9084 137.079 39.5115 136.677 40.1281V33.1311Z" fill="#3D435C"/>
<path d="M109.404 52.0715L124.765 31.0401H130.234V59.1892H125.207V37.8361L109.765 59.1892H104.377V31.0401H109.404V52.0715Z" fill="#3D435C"/>
<path d="M76.6523 31.0401H96.6382V35.6646H81.679V40.6912H87.1881C91.0754 40.6912 93.9841 41.4285 95.9144 42.9029C97.8714 44.3774 98.8499 46.6695 98.8499 49.7794C98.8499 51.3343 98.5684 52.7015 98.0054 53.8811C97.4693 55.0338 96.6784 56.0124 95.6329 56.8166C94.6141 57.5941 93.3809 58.1839 91.9333 58.586C90.4856 58.9881 88.8637 59.1892 87.0675 59.1892H76.6523V31.0401ZM81.679 45.3157V54.5647H87.0273C88.0192 54.5647 88.9173 54.4843 89.7216 54.3234C90.5526 54.1626 91.2497 53.8945 91.8126 53.5192C92.4024 53.1438 92.8448 52.6479 93.1397 52.0313C93.4614 51.3879 93.6222 50.597 93.6222 49.6587C93.6222 47.9698 93.0592 46.8304 91.9333 46.2406C90.8341 45.624 89.1988 45.3157 87.0273 45.3157H81.679Z" fill="#3D435C"/>
<g clip-path="url(#clip1_668_2739)">
<path d="M84.1405 13.7021C85.6163 12.9487 86.3609 11.7063 86.3609 9.99693C86.3609 9.26119 86.2155 8.61797 85.9291 8.08048C85.6428 7.5474 85.2242 7.09802 84.6912 6.74998C84.1669 6.41075 83.5325 6.15081 82.8056 5.9878C82.0918 5.8248 81.2812 5.74109 80.4045 5.74109C79.1533 5.74109 78.0695 5.89969 77.184 6.21249C76.3028 6.52529 75.6244 6.86012 75.1662 7.20816L75.0781 7.27425V12.1337L75.4834 11.486C75.6949 11.1512 75.968 10.8164 76.2984 10.4948C76.6289 10.1688 77.0121 9.87798 77.4263 9.61805C77.8404 9.36252 78.303 9.15986 78.8008 9.01007C79.2987 8.86468 79.8317 8.7986 80.3913 8.81182C80.7834 8.82503 81.1534 8.87349 81.4927 8.9572C81.8187 9.0365 82.1051 9.15105 82.3474 9.30525C82.5765 9.45063 82.7615 9.64448 82.8893 9.87798C83.017 10.1115 83.0831 10.3978 83.0831 10.7239C83.0831 11.0014 83.0391 11.2613 82.9553 11.4948C82.8716 11.7239 82.7395 11.9266 82.5588 12.0984C82.3782 12.2746 82.1315 12.4156 81.8275 12.517C81.5147 12.6227 81.1182 12.6756 80.6468 12.6756H78.118V15.4775H80.6688C81.8231 15.4775 82.6602 15.6361 83.158 15.9489C83.6294 16.2441 83.8585 16.7023 83.8585 17.3411C83.8585 17.7112 83.7792 18.0372 83.625 18.306C83.4664 18.5791 83.2505 18.817 82.9774 19.002C82.6998 19.1915 82.365 19.3413 81.9817 19.4382C81.5896 19.5395 81.1667 19.5924 80.7173 19.5924C80.0344 19.5924 79.3868 19.5219 78.8008 19.3809C78.2149 19.24 77.6818 19.0417 77.2148 18.795C76.7522 18.5439 76.3381 18.2487 75.9856 17.9139C75.6376 17.579 75.3468 17.2134 75.1221 16.8169L74.7124 16.0943V20.5352L74.7653 20.5969C74.9856 20.8568 75.2851 21.1123 75.6596 21.3591C76.0297 21.6058 76.4747 21.8261 76.9769 22.0199C77.4791 22.2138 78.0475 22.3724 78.6643 22.4913C79.281 22.6059 79.9595 22.6675 80.6732 22.6675C81.7174 22.6675 82.6558 22.531 83.4576 22.2666C84.2638 21.9979 84.9511 21.6366 85.4974 21.1828C86.0481 20.7291 86.471 20.1784 86.7486 19.5439C87.0217 18.9139 87.1627 18.2355 87.1627 17.5218C87.1627 15.4908 86.1494 14.2043 84.1493 13.6889L84.1405 13.7021Z" fill="#3D435C"/>
<path d="M100.314 13.799C100.869 13.4862 101.296 13.0765 101.592 12.5831C101.979 11.9398 102.173 11.1336 102.173 10.1776C102.173 7.38442 100.354 5.97021 96.763 5.97021H89.855V22.4473H96.3885C97.3402 22.4473 98.2037 22.3548 98.957 22.1785C99.7236 21.9979 100.384 21.7071 100.926 21.3194C101.477 20.9229 101.904 20.4075 102.195 19.7775C102.486 19.1563 102.636 18.4073 102.636 17.5526C102.636 16.4556 102.398 15.5701 101.935 14.9181C101.565 14.3982 101.019 14.0193 100.314 13.799ZM93.0447 9.04975H96.4326C97.3578 9.04975 98.0274 9.20395 98.4195 9.50794C98.7984 9.80312 98.9835 10.2261 98.9835 10.7988C98.9835 11.42 98.7632 11.887 98.3138 12.2262C97.8512 12.5787 97.1948 12.7549 96.3665 12.7549H93.0447V9.04975ZM98.7676 18.8787C98.3094 19.2091 97.5692 19.3766 96.5648 19.3766H93.0447V15.4423H96.6088C97.5296 15.4423 98.2477 15.5921 98.7367 15.8917C99.1993 16.1737 99.424 16.6495 99.424 17.3544C99.424 18.0593 99.2081 18.5659 98.7676 18.8831V18.8787Z" fill="#3D435C"/>
<path d="M111.742 14.9882L106.944 5.9743H103.257L110.108 18.7506C109.962 19.0238 109.804 19.2132 109.627 19.3146C109.191 19.5701 108.601 19.5304 108.103 19.3322C107.839 19.2309 107.61 19.0855 107.429 18.9092L107.054 18.548V22.1914L107.187 22.2487C107.403 22.3456 107.68 22.4338 108.006 22.5131C108.337 22.5924 108.693 22.632 109.059 22.632C109.473 22.632 109.87 22.5747 110.235 22.4602C110.605 22.3456 110.967 22.143 111.31 21.8566C111.65 21.5791 111.98 21.2002 112.297 20.7332C112.61 20.275 112.927 19.6802 113.24 18.9709L119.029 5.9743H115.663L111.742 14.9882Z" fill="#3D435C"/>
<path d="M128.734 13.8207L134.775 5.9743H130.871L125.924 12.7105H123.946V5.9743H120.756V22.4514H123.946V15.5081H126.06L131.647 22.4514H135.735L128.734 13.8207Z" fill="#3D435C"/>
</g>
</g>
<path d="M311.264 43.6396C315.835 43.6398 319.04 46.3041 319.04 52.6035C319.04 59.6953 315.835 62.3953 310.903 62.3955C308.024 62.3954 306.044 60.9556 305.144 59.2637V68.9482H300.932V44H304.892V47.7441C305.54 45.7282 307.448 43.6396 311.264 43.6396ZM265 67H262V2H265V67ZM358.213 58.1836H360.949V66.6797H357.133V62H344.497V66.6797H340.682V58.1836H342.77C343.777 55.5916 344.389 52.0273 344.389 46.0518V44H358.213V58.1836ZM394.322 43.6035C399.902 43.6397 403.538 46.8086 403.538 53.0723C403.538 59.2996 399.758 62.3592 394.179 62.3955C388.563 62.3955 384.927 59.2277 384.927 52.9277C384.927 46.6999 388.706 43.6035 394.322 43.6035ZM330.825 43.6035C336.045 43.6398 339.177 46.8444 339.177 52.4961V54.2236H325.821C326.145 57.2116 327.981 58.7236 331.257 58.7236C334.569 58.7235 336.765 57.4638 337.737 55.8799V60.2002C336.873 61.2081 334.389 62.3952 331.113 62.3594C325.173 62.3954 321.646 59.1197 321.646 52.9277C321.646 46.9519 325.389 43.6035 330.825 43.6035ZM442.06 43.6035C447.279 43.6398 450.411 46.8444 450.411 52.4961V54.2236H437.056C437.38 57.2116 439.215 58.7236 442.491 58.7236C445.803 58.7235 448 57.4638 448.972 55.8799V60.2002C448.108 61.2081 445.623 62.3952 442.348 62.3594C436.408 62.3954 432.88 59.1197 432.88 52.9277C432.88 46.9519 436.624 43.6035 442.06 43.6035ZM505.868 43.6035C511.088 43.6398 514.22 46.8444 514.22 52.4961V54.2236H500.864C501.188 57.2116 503.024 58.7236 506.3 58.7236C509.612 58.7235 511.808 57.4638 512.78 55.8799V60.2002C511.916 61.2081 509.432 62.3952 506.156 62.3594C500.216 62.3954 496.688 59.1197 496.688 52.9277C496.689 46.9519 500.432 43.6035 505.868 43.6035ZM381.002 62H376.826V47.708H370.994L370.886 49.9756C370.418 61.2067 367.682 62.2157 364.874 62.2158C364.191 62.2158 363.471 62.144 363.11 62.0361V57.6797C363.434 57.7875 363.758 57.8242 364.046 57.8242C365.594 57.8241 366.853 57.3188 367.105 47.9238L367.25 44H381.002V62ZM295.829 62H291.616V47.708H283.769V62H279.557V44H295.829V62ZM413.626 51.0195H416.11V44H420.286V51.0195H422.698L426.515 44H430.979L426.227 52.5322L431.555 62H426.767L422.771 54.5479H420.286V62H416.11V54.5479H413.662L409.559 62H404.843L410.17 52.6758L405.347 44H410.026L413.626 51.0195ZM458.495 51.0195H466.631V44H470.843V62H466.631V54.7275H458.495V62H454.283V44H458.495V51.0195ZM480.151 56.2041L488.791 44H492.787V62H488.611V49.6514L479.971 62H475.976V44H480.151V56.2041ZM394.179 47.2754C390.975 47.3114 389.21 49.1479 389.21 52.9277V53.0361C389.21 56.9958 391.082 58.7235 394.25 58.7236C397.454 58.7234 399.254 56.8878 399.254 53.0723V52.9639C399.254 49.0044 397.346 47.2757 394.179 47.2754ZM310.04 47.3838C306.728 47.3838 305.216 49.2203 305.144 52.2441V53.6123C305.144 56.852 307.016 58.6875 309.968 58.6875C313.351 58.6873 314.828 57.0317 314.828 52.7842C314.828 48.8247 312.92 47.3841 310.04 47.3838ZM348.313 48.1396C348.205 52.2794 347.845 55.3757 346.837 58.1836H354.001V47.708H348.313V48.1396ZM330.717 47.2754C328.017 47.2755 326.325 48.6438 325.893 51.2354H334.965C334.857 48.7879 333.272 47.2756 330.717 47.2754ZM441.951 47.2754C439.252 47.2755 437.559 48.6438 437.127 51.2354H446.199C446.091 48.7879 444.507 47.2756 441.951 47.2754ZM505.76 47.2754C503.06 47.2755 501.368 48.6438 500.936 51.2354H510.008C509.9 48.7879 508.315 47.2756 505.76 47.2754ZM408.154 9.63965C412.726 9.63985 415.93 12.3041 415.931 18.6035C415.931 25.6953 412.726 28.3953 407.794 28.3955C404.914 28.3954 402.934 26.9556 402.034 25.2637V34.9482H397.822V10H401.782V13.7441C402.43 11.7282 404.338 9.63965 408.154 9.63965ZM313.99 9.60352C319.57 9.6397 323.206 12.8086 323.206 19.0723C323.206 25.2996 319.426 28.3592 313.847 28.3955C308.231 28.3955 304.595 25.2277 304.595 18.9277C304.595 12.6999 308.374 9.60352 313.99 9.60352ZM468.542 9.60352C470.954 9.6396 473.114 10.3599 474.302 11.2598V16.5156C473.078 14.6079 471.17 13.3115 468.542 13.2754C465.086 13.2755 463.214 15.1122 463.214 18.748V19.2881C463.214 22.9959 465.23 24.7236 468.614 24.7236C471.602 24.7235 473.582 23.4638 474.482 21.8799V26.2002C473.69 27.2081 471.422 28.3954 468.506 28.3955C462.746 28.3954 458.931 25.2276 458.931 18.9277C458.931 12.736 462.818 9.63958 468.542 9.60352ZM506.717 9.60352C512.296 9.6397 515.933 12.8086 515.933 19.0723C515.932 25.2996 512.153 28.3592 506.573 28.3955C500.957 28.3955 497.321 25.2277 497.321 18.9277C497.321 12.6999 501.101 9.60352 506.717 9.60352ZM385.599 9.60352C390.818 9.63978 393.95 12.8444 393.95 18.4961V20.2236H380.595C380.919 23.2116 382.754 24.7236 386.03 24.7236C389.342 24.7235 391.539 23.4638 392.511 21.8799V26.2002C391.647 27.2081 389.162 28.3952 385.887 28.3594C379.947 28.3954 376.419 25.1197 376.419 18.9277C376.419 12.9519 380.163 9.60352 385.599 9.60352ZM447.931 9.60352C453.15 9.63978 456.282 12.8444 456.282 18.4961V20.2236H442.927C443.251 23.2116 445.086 24.7236 448.362 24.7236C451.674 24.7235 453.871 23.4638 454.843 21.8799V26.2002C453.979 27.2081 451.494 28.3952 448.219 28.3594C442.279 28.3954 438.751 25.1197 438.751 18.9277C438.751 12.9519 442.495 9.60352 447.931 9.60352ZM527.771 9.60352C532.99 9.63978 536.122 12.8444 536.122 18.4961V20.2236H522.767C523.091 23.2116 524.926 24.7236 528.202 24.7236C531.514 24.7235 533.711 23.4638 534.683 21.8799V26.2002C533.819 27.2081 531.334 28.3952 528.059 28.3594C522.119 28.3954 518.591 25.1197 518.591 18.9277C518.591 12.9519 522.335 9.60352 527.771 9.60352ZM284.776 13.3838H288.557L296.656 2.7998H302.128L292.517 14.7881L303.677 28H297.916L288.772 17.0918H284.776V28H280.276V2.7998H284.776V13.3838ZM337.312 18.4238L343 10H347.248V28H343.036V15.9043L337.852 23.5361H336.52L331.3 15.8682V28H327.088V10H331.444L337.312 18.4238ZM362.589 18.4238L368.277 10H372.525V28H368.313V15.9043L363.129 23.5361H361.797L356.577 15.8682V28H352.365V10H356.722L362.589 18.4238ZM423.324 15.7959C423.324 17.9558 424.548 18.9639 426.78 18.9639C428.22 18.9637 429.588 18.6756 430.668 18.1357V10H434.88V28H430.668V21.6641C429.408 22.384 427.679 22.7079 426.023 22.708C421.704 22.7079 419.112 20.7632 419.112 16.4434V10H423.324V15.7959ZM482.542 17.0195H485.458L490.498 10H495.178L488.878 18.4961L496.187 28H491.074L485.422 20.5479H482.542V28H478.33V10H482.542V17.0195ZM313.847 13.2754C310.643 13.3114 308.878 15.1479 308.878 18.9277V19.0361C308.878 22.9958 310.75 24.7235 313.918 24.7236C317.122 24.7234 318.922 22.8878 318.922 19.0723V18.9639C318.922 15.0044 317.014 13.2757 313.847 13.2754ZM506.573 13.2754C503.369 13.3114 501.605 15.1479 501.604 18.9277V19.0361C501.605 22.9958 503.477 24.7235 506.645 24.7236C509.848 24.7234 511.648 22.8878 511.648 19.0723V18.9639C511.648 15.0044 509.741 13.2757 506.573 13.2754ZM406.931 13.3838C403.619 13.3838 402.106 15.2203 402.034 18.2441V19.6123C402.034 22.852 403.907 24.6875 406.858 24.6875C410.242 24.6873 411.719 23.0317 411.719 18.7842C411.719 14.8247 409.81 13.3841 406.931 13.3838ZM385.49 13.2754C382.791 13.2755 381.098 14.6438 380.666 17.2354H389.738C389.63 14.7879 388.046 13.2756 385.49 13.2754ZM447.822 13.2754C445.123 13.2755 443.43 14.6438 442.998 17.2354H452.07C451.962 14.7879 450.378 13.2756 447.822 13.2754ZM527.662 13.2754C524.962 13.2755 523.27 14.6438 522.838 17.2354H531.91C531.802 14.7879 530.218 13.2756 527.662 13.2754Z" fill="#3D435C"/>
<defs>
<clipPath id="clip0_668_2739">
<rect width="249.925" height="64.4138" fill="white" transform="translate(0 2)"/>
</clipPath>
<clipPath id="clip1_668_2739">
<rect width="61.0312" height="16.9353" fill="white" transform="translate(74.7036 5.74585)"/>
</clipPath>
</defs>
</svg>
