<svg width="38" height="38" viewBox="0 0 38 38" fill="none" xmlns="http://www.w3.org/2000/svg">
<rect width="38" height="38" rx="19" fill="#04C9B0"/>
<path d="M23 29C22.1667 29 21.4583 28.7083 20.875 28.125C20.2917 27.5417 20 26.8333 20 26C20 25.9 20.025 25.6667 20.075 25.3L13.05 21.2C12.7833 21.45 12.475 21.646 12.125 21.788C11.775 21.93 11.4 22.0007 11 22C10.1667 22 9.45833 21.7083 8.875 21.125C8.29167 20.5417 8 19.8333 8 19C8 18.1667 8.29167 17.4583 8.875 16.875C9.45833 16.2917 10.1667 16 11 16C11.4 16 11.775 16.071 12.125 16.213C12.475 16.355 12.7833 16.5507 13.05 16.8L20.075 12.7C20.0417 12.5833 20.021 12.471 20.013 12.363C20.005 12.255 20.0007 12.134 20 12C20 11.1667 20.2917 10.4583 20.875 9.875C21.4583 9.29167 22.1667 9 23 9C23.8333 9 24.5417 9.29167 25.125 9.875C25.7083 10.4583 26 11.1667 26 12C26 12.8333 25.7083 13.5417 25.125 14.125C24.5417 14.7083 23.8333 15 23 15C22.6 15 22.225 14.929 21.875 14.787C21.525 14.645 21.2167 14.4493 20.95 14.2L13.925 18.3C13.9583 18.4167 13.9793 18.5293 13.988 18.638C13.9967 18.7467 14.0007 18.8673 14 19C13.9993 19.1327 13.9953 19.2537 13.988 19.363C13.9807 19.4723 13.9597 19.5847 13.925 19.7L20.95 23.8C21.2167 23.55 21.525 23.3543 21.875 23.213C22.225 23.0717 22.6 23.0007 23 23C23.8333 23 24.5417 23.2917 25.125 23.875C25.7083 24.4583 26 25.1667 26 26C26 26.8333 25.7083 27.5417 25.125 28.125C24.5417 28.7083 23.8333 29 23 29Z" fill="black"/>
</svg>
