<svg width="38" height="38" viewBox="0 0 38 38" fill="none" xmlns="http://www.w3.org/2000/svg">
<rect width="38" height="38" rx="16" fill="#04C9B0"/>
<path d="M11 17C11 17.9193 11.1811 18.8295 11.5328 19.6788C11.8846 20.5281 12.4002 21.2997 13.0503 21.9497C13.7003 22.5998 14.4719 23.1154 15.3212 23.4672C16.1705 23.8189 17.0807 24 18 24C18.9193 24 19.8295 23.8189 20.6788 23.4672C21.5281 23.1154 22.2997 22.5998 22.9497 21.9497C23.5998 21.2997 24.1154 20.5281 24.4672 19.6788C24.8189 18.8295 25 17.9193 25 17C25 16.0807 24.8189 15.1705 24.4672 14.3212C24.1154 13.4719 23.5998 12.7003 22.9497 12.0503C22.2997 11.4002 21.5281 10.8846 20.6788 10.5328C19.8295 10.1811 18.9193 10 18 10C17.0807 10 16.1705 10.1811 15.3212 10.5328C14.4719 10.8846 13.7003 11.4002 13.0503 12.0503C12.4002 12.7003 11.8846 13.4719 11.5328 14.3212C11.1811 15.1705 11 16.0807 11 17ZM29 28L23 22Z" fill="#04C9B0"/>
<path d="M29 28L23 22M11 17C11 17.9193 11.1811 18.8295 11.5328 19.6788C11.8846 20.5281 12.4002 21.2997 13.0503 21.9497C13.7003 22.5998 14.4719 23.1154 15.3212 23.4672C16.1705 23.8189 17.0807 24 18 24C18.9193 24 19.8295 23.8189 20.6788 23.4672C21.5281 23.1154 22.2997 22.5998 22.9497 21.9497C23.5998 21.2997 24.1154 20.5281 24.4672 19.6788C24.8189 18.8295 25 17.9193 25 17C25 16.0807 24.8189 15.1705 24.4672 14.3212C24.1154 13.4719 23.5998 12.7003 22.9497 12.0503C22.2997 11.4002 21.5281 10.8846 20.6788 10.5328C19.8295 10.1811 18.9193 10 18 10C17.0807 10 16.1705 10.1811 15.3212 10.5328C14.4719 10.8846 13.7003 11.4002 13.0503 12.0503C12.4002 12.7003 11.8846 13.4719 11.5328 14.3212C11.1811 15.1705 11 16.0807 11 17Z" stroke="black" stroke-width="2" stroke-linecap="round" stroke-linejoin="round"/>
</svg>
